# xmcd CD database file
#
# Track frame offsets:
#	150
#	9830
#	25070
#	46815
#	69041
#	86350
#	106106
#	119931
#	134712
#	150326
#	161050
#	188591
#	205710
#	221760
#	233955
#	252863
#	263540
#
# Disc length: 3738 seconds
#
# Revision: 0
# Processed by: cddbd v1.4PL0 Copyright (c) Steve Scherf et al.
# Submitted via: CDex 1.51
#
DISCID=d60e9811
DTITLE=Michael Hedges - The Best Of Michael Hedges
DYEAR=1900
DGENRE=New Age
TTITLE0=The Funky Avocado
TTITLE1=Silent Anticipations
TTITLE2=Aerial Boundaries
TTITLE3=Rickover's Dream
TTITLE4=The Streamlined Man
TTITLE5=Woman Of The World
TTITLE6=All Along The Watchtower
TTITLE7=Because It's There
TTITLE8=The Double Planet
TTITLE9=Ritual Dance
TTITLE10=Road To Return
TTITLE11=Follow Through
TTITLE12=Ignition
TTITLE13=Jitterboogie
TTITLE14=Oracle
TTITLE15=Arrowhead
TTITLE16=Java Man
EXTD=
EXTT0=
EXTT1=
EXTT2=
EXTT3=
EXTT4=
EXTT5=
EXTT6=
EXTT7=
EXTT8=
EXTT9=
EXTT10=
EXTT11=
EXTT12=
EXTT13=
EXTT14=
EXTT15=
EXTT16=
PLAYORDER=
